<svg xmlns="http://www.w3.org/2000/svg" width="150" height="150" fill="none"><path fill="#9d9d9d" d="M55 35h10v10H55V35Zm10 0h10v10H65V35Zm0 10h10v10H65V45Zm-10 0h10v10H55V45Zm-10 0h10v10H45V45Zm-10 0h10v10H35V45Zm-10 0h10v10H25V45Zm0 10h10v10H25V55Zm-10 0h10v10H15V55Zm0 10h10v10H15V65Zm10 0h10v10H25V65ZM15 75h10v10H15V75Zm10 0h10v10H25V75Zm10-20h10v10H35V55Zm10 0h10v10H45V55Zm10 0h10v10H55V55Zm10 0h10v10H65V55Zm0 10h10v10H65V65Zm-30 0h10v10H35V65Zm0 10h10v10H35V75Zm10 0h10v10H45V75Zm10 0h10v10H55V75Zm10 0h10v10H65V75ZM55 85h10v10H55V85Zm-10 0h10v10H45V85Zm-10 0h10v10H35V85Zm0 10h10v10H35V95Zm-10 0h10v10H25V95Zm10 10h10v10H35v-10Zm10 0h10v10H45v-10Zm50-70H85v10h10V35Zm-10 0H75v10h10V35Zm0 10H75v10h10V45Zm10 0H85v10h10V45Zm10 0H95v10h10V45Zm10 0h-10v10h10V45Zm10 0h-10v10h10V45Zm0 10h-10v10h10V55Zm10 0h-10v10h10V55Zm0 10h-10v10h10V65Zm-10 0h-10v10h10V65Zm10 10h-10v10h10V75Zm-10 0h-10v10h10V75Zm-10-20h-10v10h10V55Zm-10 0H95v10h10V55Zm-10 0H85v10h10V55Zm-10 0H75v10h10V55Zm0 10H75v10h10V65Zm30 0h-10v10h10V65Zm0 10h-10v10h10V75Zm-10 0H95v10h10V75Zm-10 0H85v10h10V75Zm-10 0H75v10h10V75Zm10 10H85v10h10V85Zm10 0H95v10h10V85Zm10 0h-10v10h10V85Zm0 10h-10v10h10V95Zm10 0h-10v10h10V95Zm-10 10h-10v10h10v-10Zm-10 0H95v10h10v-10Z"/></svg>