<svg xmlns="http://www.w3.org/2000/svg" width="150" height="150" fill="none"><path fill="#9d9d9d" d="M65 35h10v10H65V35ZM45 55h10v10H45V55Zm0 10h10v10H45V65Zm-10 0h10v10H35V65Zm0 10h10v10H35V75Zm10 0h10v10H45V75Zm0 10h10v10H45V85ZM35 95h10v10H35V95Zm10 10h10v10H45v-10Zm10-30h10v10H55V75Zm10-10h10v10H65V65Zm0 10h10v10H65V75Zm0 10h10v10H65V85ZM55 55h10v10H55V55Zm10 0h10v10H65V55ZM55 45h10v10H55V45Zm10 0h10v10H65V45Zm20-10H75v10h10V35Zm20 20H95v10h10V55Zm0 10H95v10h10V65Zm10 0h-10v10h10V65Zm0 10h-10v10h10V75Zm-10 0H95v10h10V75Zm0 10H95v10h10V85Zm10 10h-10v10h10V95Zm-10 10H95v10h10v-10ZM95 75H85v10h10V75ZM85 65H75v10h10V65Zm0 10H75v10h10V75Zm0 10H75v10h10V85Zm10-30H85v10h10V55Zm-10 0H75v10h10V55Zm10-10H85v10h10V45Zm-10 0H75v10h10V45Z"/></svg>