<svg xmlns="http://www.w3.org/2000/svg" width="150" height="150" fill="none"><path fill="#9d9d9d" d="M100 45H90v10h10V45Zm0 10H90v10h10V55Zm10 0h-10v10h10V55Zm0 10h-10v10h10V65Zm10 0h-10v10h10V65Zm0 10h-10v10h10V75Zm10 0h-10v10h10V75Zm0 10h-10v10h10V85Zm0 10h-10v10h10V95Zm-20-20h-10v10h10V75Zm0 10h-10v10h10V85Zm0 10h-10v10h10V95Zm-10 10H90v10h10v-10Zm-10 0H80v10h10v-10Zm10-30H90v10h10V75Zm0 10H90v10h10V85ZM90 55H80v10h10V55Zm0 10H80v10h10V65Zm0 10H80v10h10V75Zm0 10H80v10h10V85ZM80 55H70v10h10V55Zm0 10H70v10h10V65Zm0 10H70v10h10V75Zm0 10H70v10h10V85Zm30-50h-10v10h10V35ZM50 45h10v10H50V45Zm0 10h10v10H50V55Zm-10 0h10v10H40V55Zm0 10h10v10H40V65Zm-10 0h10v10H30V65Zm0 10h10v10H30V75Zm-10 0h10v10H20V75Zm0 10h10v10H20V85Zm0 10h10v10H20V95Zm20-20h10v10H40V75Zm0 10h10v10H40V85Zm0 10h10v10H40V95Zm10 10h10v10H50v-10Zm10 0h10v10H60v-10ZM50 75h10v10H50V75Zm0 10h10v10H50V85Zm10-30h10v10H60V55Zm0 10h10v10H60V65Zm0 10h10v10H60V75Zm0 10h10v10H60V85Z"/><path fill="#9d9d9d" d="M70 55h10v10H70V55Zm0 10h10v10H70V65Zm0 10h10v10H70V75Zm0 10h10v10H70V85ZM40 35h10v10H40V35Z"/></svg>