<svg xmlns="http://www.w3.org/2000/svg" width="150" height="150" fill="none"><path fill="#9d9d9d" d="M65 35h10v10H65V35Zm-30 70h10v10H35v-10Zm10-10h10v10H45V95Zm10 10h10v10H55v-10Zm30 0h10v10H85v-10Zm20 0h10v10h-10v-10ZM95 95h10v10H95V95Zm-20 0h10v10H75V95Zm-10 0h10v10H65V95Zm20-10h10v10H85V85Zm-30 0h10v10H55V85Zm50-10h10v10h-10V75Zm0-10h10v10h-10V65ZM95 75h10v10H95V75Zm0-10h10v10H95V65ZM85 75h10v10H85V75Zm-10 0h10v10H75V75Zm0-10h10v10H75V65ZM65 75h10v10H65V75Zm0-10h10v10H65V65ZM55 75h10v10H55V75Zm-10 0h10v10H45V75Zm-10 0h10v10H35V75Zm0-10h10v10H35V65Zm10 0h10v10H45V65Zm50-10h10v10H95V55Zm-10 0h10v10H85V55Zm-10 0h10v10H75V55Zm-10 0h10v10H65V55Zm-20 0h10v10H45V55Zm10 0h10v10H55V55Zm30-10h10v10H85V45Zm-10 0h10v10H75V45Zm-20 0h10v10H55V45Zm10 0h10v10H65V45Zm10-10h10v10H75V35Z"/></svg>