<svg xmlns="http://www.w3.org/2000/svg" width="150" height="150" fill="none"><path fill="#9d9d9d" d="M40 35h10v10H40V35Zm10 10h10v10H50V45Zm0 10h10v10H50V55Zm10 0h10v10H60V55Zm10 0h10v10H70V55ZM60 65h10v10H60V65Zm0 10h10v10H60V75Zm0 10h10v10H60V85Zm10-20h10v10H70V65Zm0 10h10v10H70V75Zm0 10h10v10H70V85Zm10-30h10v10H80V55Zm0 10h10v10H80V65Zm0 10h10v10H80V75Zm0 10h10v10H80V85Zm10 0h10v10H90V85Zm0-10h10v10H90V75Zm0-20h10v10H90V55Zm0-10h10v10H90V45Zm10-10h10v10h-10V35Zm0 20h10v10h-10V55Zm0 10h10v10h-10V65Zm10 0h10v10h-10V65Zm0 10h10v10h-10V75Zm10 0h10v10h-10V75Zm0-10h10v10h-10V65Zm0-10h10v10h-10V55Zm0-10h10v10h-10V45Zm-10 40h10v10h-10V85Zm-10-10h10v10h-10V75Zm0 10h10v10h-10V85Zm0 10h10v10h-10V95Zm10 10h10v10h-10v-10ZM50 75h10v10H50V75Zm0 10h10v10H50V85ZM40 55h10v10H40V55Zm0 10h10v10H40V65Zm-10 0h10v10H30V65Zm-10 0h10v10H20V65Zm0-10h10v10H20V55Zm0-10h10v10H20V45Zm0 30h10v10H20V75Zm10 0h10v10H30V75Zm0 10h10v10H30V85Zm10 0h10v10H40V85Zm0 10h10v10H40V95Zm-10 10h10v10H30v-10Zm10-30h10v10H40V75Z"/></svg>