<svg xmlns="http://www.w3.org/2000/svg" width="150" height="150" fill="none"><path fill="#9d9d9d" d="M55 35h10v10H55V35Zm0 10h10v10H55V45Zm0 10h10v10H55V55Zm10-20h10v10H65V35Zm0 10h10v10H65V45Zm0 10h10v10H65V55Zm0 10h10v10H65V65Zm0 10h10v10H65V75Zm-10 0h10v10H55V75ZM45 45h10v10H45V45Zm0 10h10v10H45V55ZM35 45h10v10H35V45Zm-10 0h10v10H25V45Zm10 10h10v10H35V55Zm-10 0h10v10H25V55Zm-10 0h10v10H15V55Zm0 10h10v10H15V65Zm10 0h10v10H25V65Zm10 0h10v10H35V65ZM15 75h10v10H15V75Zm10 0h10v10H25V75Zm10 0h10v10H35V75Zm10 0h10v10H45V75Zm10 10h10v10H55V85Zm-10 0h10v10H45V85Zm0 10h10v10H45V95Zm-10 0h10v10H35V95Zm-10 10h10v10H25v-10Zm-10 0h10v10H15v-10Zm80-70H85v10h10V35Zm0 10H85v10h10V45Zm0 10H85v10h10V55ZM85 35H75v10h10V35Zm0 10H75v10h10V45Zm0 10H75v10h10V55Zm0 10H75v10h10V65Zm0 10H75v10h10V75Zm10 0H85v10h10V75Zm10-30H95v10h10V45Zm0 10H95v10h10V55Zm10-10h-10v10h10V45Zm10 0h-10v10h10V45Zm-10 10h-10v10h10V55Zm10 0h-10v10h10V55Zm10 0h-10v10h10V55Zm0 10h-10v10h10V65Zm-10 0h-10v10h10V65Zm-10 0h-10v10h10V65Zm20 10h-10v10h10V75Zm-10 0h-10v10h10V75Zm-10 0h-10v10h10V75Zm-10 0H95v10h10V75ZM95 85H85v10h10V85Zm10 0H95v10h10V85Zm0 10H95v10h10V95Zm10 0h-10v10h10V95Zm10 10h-10v10h10v-10Zm10 0h-10v10h10v-10Z"/></svg>