<svg width="15" height="15" viewBox="0 0 15 15" xmlns="http://www.w3.org/2000/svg">
<g clip-path="url(#clip0_41_397)">
<path d="M7.5 15C11.6426 15 15 11.6426 15 7.5C15 3.35742 11.6426 0 7.5 0C3.35742 0 0 3.35742 0 7.5C0 11.6426 3.35742 15 7.5 15ZM5.12695 5.12695C5.40234 4.85156 5.84766 4.85156 6.12012 5.12695L7.49707 6.50391L8.87402 5.12695C9.14941 4.85156 9.59473 4.85156 9.86719 5.12695C10.1396 5.40234 10.1426 5.84766 9.86719 6.12012L8.49023 7.49707L9.86719 8.87402C10.1426 9.14941 10.1426 9.59473 9.86719 9.86719C9.5918 10.1396 9.14648 10.1426 8.87402 9.86719L7.49707 8.49023L6.12012 9.86719C5.84473 10.1426 5.39941 10.1426 5.12695 9.86719C4.85449 9.5918 4.85156 9.14648 5.12695 8.87402L6.50391 7.49707L5.12695 6.12012C4.85156 5.84473 4.85156 5.39941 5.12695 5.12695V5.12695Z"/>
</g>
<defs>
<clipPath id="clip0_41_397">
<rect width="15" height="15"/>
</clipPath>
</defs>
</svg>
