<svg width="20" height="16" viewBox="0 0 20 16" xmlns="http://www.w3.org/2000/svg">
<path d="M1.21265 0.159547C0.88766 -0.0966972 0.415793 -0.0373235 0.159548 0.287669C-0.0966976 0.612662 -0.0373237 1.08453 0.287671 1.34077L18.7873 15.8405C19.1123 16.0967 19.5842 16.0373 19.8405 15.7123C20.0967 15.3873 20.0373 14.9155 19.7123 14.6592L16.4249 12.0843C17.6624 10.8156 18.4999 9.39372 18.9217 8.38437C19.0248 8.1375 19.0248 7.8625 18.9217 7.61563C18.4561 6.50003 17.478 4.87507 16.0155 3.51885C14.5468 2.15013 12.525 1.00015 10 1.00015C7.86879 1.00015 6.09382 1.82201 4.70947 2.90011L1.21265 0.159547ZM6.97193 4.67195C7.76879 3.94384 8.8344 3.5001 10 3.5001C12.4843 3.5001 14.4999 5.51568 14.4999 8C14.4999 8.77811 14.3031 9.50934 13.9562 10.1468L12.75 9.2031C12.9124 8.83436 12.9999 8.42812 12.9999 8C12.9999 6.34379 11.6562 5.00007 10 5.00007C9.9125 5.00007 9.825 5.00319 9.73751 5.01257C9.90313 5.30318 10 5.64068 10 6.00004C10 6.31879 9.925 6.61878 9.79375 6.8844L6.97193 4.67195V4.67195ZM13.9437 13.9842L11.6562 12.1843C11.1437 12.3874 10.5844 12.4999 10 12.4999C7.51567 12.4999 5.50008 10.4843 5.50008 8C5.50008 7.78438 5.5157 7.57501 5.54383 7.36876L2.59701 5.04694C1.88452 5.97504 1.37515 6.90002 1.07828 7.61563C0.975159 7.8625 0.975159 8.1375 1.07828 8.38437C1.5439 9.49997 2.52201 11.1249 3.98448 12.4812C5.45321 13.8499 7.47504 14.9998 10 14.9998C11.4937 14.9998 12.8093 14.5967 13.9437 13.9842Z"/>
</svg>
