<svg width="18" height="14" viewBox="0 0 18 14" xmlns="http://www.w3.org/2000/svg">
<path d="M8.99844 0C6.47366 0 4.45196 1.15 2.98021 2.51875C1.51784 3.875 0.539797 5.5 0.077337 6.61562C-0.025779 6.8625 -0.025779 7.1375 0.077337 7.38437C0.539797 8.5 1.51784 10.125 2.98021 11.4812C4.45196 12.85 6.47366 14 8.99844 14C11.5232 14 13.5449 12.85 15.0167 11.4812C16.479 10.1219 17.4571 8.5 17.9227 7.38437C18.0258 7.1375 18.0258 6.8625 17.9227 6.61562C17.4571 5.5 16.479 3.875 15.0167 2.51875C13.5449 1.15 11.5232 0 8.99844 0ZM13.498 7C13.498 9.48438 11.4826 11.5 8.99844 11.5C6.51428 11.5 4.49883 9.48438 4.49883 7C4.49883 4.51562 6.51428 2.5 8.99844 2.5C11.4826 2.5 13.498 4.51562 13.498 7ZM8.99844 5C8.99844 6.10312 8.10164 7 6.99861 7C6.63927 7 6.3018 6.90625 6.0112 6.7375C6.00495 6.825 5.9987 6.90937 5.9987 7C5.9987 8.65625 7.34233 10 8.99844 10C10.6545 10 11.9982 8.65625 11.9982 7C11.9982 5.34375 10.6545 4 8.99844 4C8.91095 4 8.82345 4.00312 8.73596 4.0125C8.90157 4.30312 8.99844 4.64062 8.99844 5Z"/>
</svg>
