<svg xmlns="http://www.w3.org/2000/svg" width="100" height="100" fill="none"><path fill="#000" d="M0 0h100v100H0z"/><path fill="#fff" d="M40 10h10v10H40V10ZM10 80h10v10H10V80Zm10-10h10v10H20V70Zm10 10h10v10H30V80Zm30 0h10v10H60V80Zm20 0h10v10H80V80ZM70 70h10v10H70V70Zm-20 0h10v10H50V70Zm-10 0h10v10H40V70Zm20-10h10v10H60V60Zm-30 0h10v10H30V60Zm50-10h10v10H80V50Zm0-10h10v10H80V40ZM70 50h10v10H70V50Zm0-10h10v10H70V40ZM60 50h10v10H60V50Zm-10 0h10v10H50V50Zm0-10h10v10H50V40ZM40 50h10v10H40V50Zm0-10h10v10H40V40ZM30 50h10v10H30V50Zm-10 0h10v10H20V50Zm-10 0h10v10H10V50Zm0-10h10v10H10V40Zm10 0h10v10H20V40Zm50-10h10v10H70V30Zm-10 0h10v10H60V30Zm-10 0h10v10H50V30Zm-10 0h10v10H40V30Zm-20 0h10v10H20V30Zm10 0h10v10H30V30Zm30-10h10v10H60V20Zm-10 0h10v10H50V20Zm-20 0h10v10H30V20Zm10 0h10v10H40V20Zm10-10h10v10H50V10Z"/></svg>