<svg viewBox="0 0 20 20" xmlns="http://www.w3.org/2000/svg">
<path d="M10.5 18C14.6426 18 18 14.6426 18 10.5C18 6.35742 14.6426 3 10.5 3C6.35742 3 3 6.35742 3 10.5C3 14.6426 6.35742 18 10.5 18ZM8.12695 8.12695C8.40234 7.85156 8.84766 7.85156 9.12012 8.12695L10.4971 9.50391L11.874 8.12695C12.1494 7.85156 12.5947 7.85156 12.8672 8.12695C13.1396 8.40234 13.1426 8.84766 12.8672 9.12012L11.4902 10.4971L12.8672 11.874C13.1426 12.1494 13.1426 12.5947 12.8672 12.8672C12.5918 13.1396 12.1465 13.1426 11.874 12.8672L10.4971 11.4902L9.12012 12.8672C8.84473 13.1426 8.39941 13.1426 8.12695 12.8672C7.85449 12.5918 7.85156 12.1465 8.12695 11.874L9.50391 10.4971L8.12695 9.12012C7.85156 8.84473 7.85156 8.39941 8.12695 8.12695V8.12695Z"/>
</svg>
