<svg viewBox="0 0 20 20" xmlns="http://www.w3.org/2000/svg">
<path d="M10 17.5C14.1426 17.5 17.5 14.1426 17.5 10C17.5 5.85742 14.1426 2.5 10 2.5C5.85742 2.5 2.5 5.85742 2.5 10C2.5 14.1426 5.85742 17.5 10 17.5ZM7.62695 7.62695C7.90234 7.35156 8.34766 7.35156 8.62012 7.62695L9.99707 9.00391L11.374 7.62695C11.6494 7.35156 12.0947 7.35156 12.3672 7.62695C12.6396 7.90234 12.6426 8.34766 12.3672 8.62012L10.9902 9.99707L12.3672 11.374C12.6426 11.6494 12.6426 12.0947 12.3672 12.3672C12.0918 12.6396 11.6465 12.6426 11.374 12.3672L9.99707 10.9902L8.62012 12.3672C8.34473 12.6426 7.89941 12.6426 7.62695 12.3672C7.35449 12.0918 7.35156 11.6465 7.62695 11.374L9.00391 9.99707L7.62695 8.62012C7.35156 8.34473 7.35156 7.89941 7.62695 7.62695V7.62695Z"/>
</svg>
