<svg viewBox="0 0 20 20" xmlns="http://www.w3.org/2000/svg">
<path d="M1.21265 2.15955C0.88766 1.9033 0.415793 1.96268 0.159548 2.28767C-0.0966976 2.61266 -0.0373237 3.08453 0.287671 3.34077L18.7873 17.8405C19.1123 18.0967 19.5842 18.0373 19.8405 17.7123C20.0967 17.3873 20.0373 16.9155 19.7123 16.6592L16.4249 14.0843C17.6624 12.8156 18.4999 11.3937 18.9217 10.3844C19.0248 10.1375 19.0248 9.8625 18.9217 9.61563C18.4561 8.50003 17.478 6.87507 16.0155 5.51885C14.5468 4.15013 12.525 3.00015 10 3.00015C7.86879 3.00015 6.09382 3.82201 4.70947 4.90011L1.21265 2.15955ZM6.97193 6.67195C7.76879 5.94384 8.8344 5.5001 10 5.5001C12.4843 5.5001 14.4999 7.51568 14.4999 10C14.4999 10.7781 14.3031 11.5093 13.9562 12.1468L12.75 11.2031C12.9124 10.8344 12.9999 10.4281 12.9999 10C12.9999 8.34379 11.6562 7.00007 10 7.00007C9.9125 7.00007 9.825 7.00319 9.73751 7.01257C9.90313 7.30318 10 7.64068 10 8.00004C10 8.31879 9.925 8.61878 9.79375 8.8844L6.97193 6.67195V6.67195ZM13.9437 15.9842L11.6562 14.1843C11.1437 14.3874 10.5844 14.4999 10 14.4999C7.51567 14.4999 5.50008 12.4843 5.50008 10C5.50008 9.78438 5.5157 9.57501 5.54383 9.36876L2.59701 7.04694C1.88452 7.97504 1.37515 8.90002 1.07828 9.61563C0.975159 9.8625 0.975159 10.1375 1.07828 10.3844C1.5439 11.5 2.52201 13.1249 3.98448 14.4812C5.45321 15.8499 7.47504 16.9998 10 16.9998C11.4937 16.9998 12.8093 16.5967 13.9437 15.9842Z"/>
</svg>
