<svg viewBox="0 0 20 20" xmlns="http://www.w3.org/2000/svg">
<path d="M9.99844 3C7.47366 3 5.45196 4.15 3.98021 5.51875C2.51784 6.875 1.5398 8.5 1.07734 9.61562C0.974221 9.8625 0.974221 10.1375 1.07734 10.3844C1.5398 11.5 2.51784 13.125 3.98021 14.4812C5.45196 15.85 7.47366 17 9.99844 17C12.5232 17 14.5449 15.85 16.0167 14.4812C17.479 13.1219 18.4571 11.5 18.9227 10.3844C19.0258 10.1375 19.0258 9.8625 18.9227 9.61562C18.4571 8.5 17.479 6.875 16.0167 5.51875C14.5449 4.15 12.5232 3 9.99844 3ZM14.498 10C14.498 12.4844 12.4826 14.5 9.99844 14.5C7.51428 14.5 5.49883 12.4844 5.49883 10C5.49883 7.51562 7.51428 5.5 9.99844 5.5C12.4826 5.5 14.498 7.51562 14.498 10ZM9.99844 8C9.99844 9.10312 9.10164 10 7.99861 10C7.63927 10 7.3018 9.90625 7.0112 9.7375C7.00495 9.825 6.9987 9.90937 6.9987 10C6.9987 11.6562 8.34233 13 9.99844 13C11.6545 13 12.9982 11.6562 12.9982 10C12.9982 8.34375 11.6545 7 9.99844 7C9.91095 7 9.82345 7.00312 9.73596 7.0125C9.90157 7.30312 9.99844 7.64062 9.99844 8Z"/>
</svg>
