<svg viewBox="0 0 20 20" xmlns="http://www.w3.org/2000/svg">
<path d="M12.3438 12.8125C15.1914 12.8125 17.5 10.5039 17.5 7.65625C17.5 4.80859 15.1914 2.5 12.3438 2.5C9.49609 2.5 7.1875 4.80859 7.1875 7.65625C7.1875 8.2041 7.27246 8.73437 7.43066 9.22949L2.70508 13.9551C2.57324 14.0869 2.5 14.2656 2.5 14.4531V16.7969C2.5 17.1865 2.81348 17.5 3.20312 17.5H5.54688C5.93652 17.5 6.25 17.1865 6.25 16.7969V15.625H7.42188C7.81152 15.625 8.125 15.3115 8.125 14.9219V13.75H9.29688C9.48438 13.75 9.66309 13.6768 9.79492 13.5449L10.7705 12.5693C11.2656 12.7275 11.7959 12.8125 12.3438 12.8125ZM13.5156 7.65625C12.8682 7.65625 12.3438 7.13184 12.3438 6.48438C12.3438 5.83691 12.8682 5.3125 13.5156 5.3125C14.1631 5.3125 14.6875 5.83691 14.6875 6.48438C14.6875 7.13184 14.1631 7.65625 13.5156 7.65625Z"/>
</svg>
