<svg viewBox="0 0 20 20" xmlns="http://www.w3.org/2000/svg">
<path d="M12.8438 13.3125C15.6914 13.3125 18 11.0039 18 8.15625C18 5.30859 15.6914 3 12.8438 3C9.99609 3 7.6875 5.30859 7.6875 8.15625C7.6875 8.7041 7.77246 9.23437 7.93066 9.72949L3.20508 14.4551C3.07324 14.5869 3 14.7656 3 14.9531V17.2969C3 17.6865 3.31348 18 3.70312 18H6.04688C6.43652 18 6.75 17.6865 6.75 17.2969V16.125H7.92188C8.31152 16.125 8.625 15.8115 8.625 15.4219V14.25H9.79688C9.98438 14.25 10.1631 14.1768 10.2949 14.0449L11.2705 13.0693C11.7656 13.2275 12.2959 13.3125 12.8438 13.3125ZM14.0156 8.15625C13.3682 8.15625 12.8438 7.63184 12.8438 6.98438C12.8438 6.33691 13.3682 5.8125 14.0156 5.8125C14.6631 5.8125 15.1875 6.33691 15.1875 6.98438C15.1875 7.63184 14.6631 8.15625 14.0156 8.15625Z"/>
</svg>
