<svg viewBox="0 0 20 20" xmlns="http://www.w3.org/2000/svg">
<path d="M17.1498 6.73827C17.1612 6.90232 17.1612 7.06641 17.1612 7.23047C17.1612 12.2344 13.4493 18 6.66499 18C4.57488 18 2.63326 17.3789 1 16.3008C1.29697 16.3359 1.58247 16.3477 1.89086 16.3477C3.61546 16.3477 5.20305 15.75 6.47083 14.7305C4.84899 14.6953 3.48985 13.6055 3.02156 12.1055C3.25001 12.1406 3.47842 12.164 3.71829 12.164C4.0495 12.164 4.38074 12.1172 4.6891 12.0352C2.99875 11.6836 1.73094 10.1601 1.73094 8.32031V8.27345C2.22204 8.5547 2.79315 8.73048 3.39844 8.75389C2.40478 8.07419 1.75379 6.91405 1.75379 5.60154C1.75379 4.89842 1.9365 4.25389 2.25631 3.69139C4.07232 5.98826 6.80203 7.48824 9.86293 7.65233C9.80583 7.37108 9.77155 7.07814 9.77155 6.78516C9.77155 4.6992 11.4162 3 13.4607 3C14.5228 3 15.4822 3.45703 16.1561 4.19531C16.9898 4.03126 17.7893 3.71484 18.4975 3.28125C18.2233 4.16018 17.6409 4.89846 16.8756 5.36718C17.618 5.28519 18.3376 5.0742 19 4.78126C18.4975 5.53123 17.8693 6.19917 17.1498 6.73827V6.73827Z"/>
</svg>
