<svg viewBox="0 0 20 20" xmlns="http://www.w3.org/2000/svg">
<path d="M17.1498 6.23827C17.1612 6.40232 17.1612 6.56641 17.1612 6.73047C17.1612 11.7344 13.4493 17.5 6.66499 17.5C4.57488 17.5 2.63326 16.8789 1 15.8008C1.29697 15.8359 1.58247 15.8477 1.89086 15.8477C3.61546 15.8477 5.20305 15.25 6.47083 14.2305C4.84899 14.1953 3.48985 13.1055 3.02156 11.6055C3.25001 11.6406 3.47842 11.664 3.71829 11.664C4.0495 11.664 4.38074 11.6172 4.6891 11.5352C2.99875 11.1836 1.73094 9.66015 1.73094 7.82031V7.77345C2.22204 8.0547 2.79315 8.23048 3.39844 8.25389C2.40478 7.57419 1.75379 6.41405 1.75379 5.10154C1.75379 4.39842 1.9365 3.75389 2.25631 3.19139C4.07232 5.48826 6.80203 6.98824 9.86293 7.15233C9.80583 6.87108 9.77155 6.57814 9.77155 6.28516C9.77155 4.1992 11.4162 2.5 13.4607 2.5C14.5228 2.5 15.4822 2.95703 16.1561 3.69531C16.9898 3.53126 17.7893 3.21484 18.4975 2.78125C18.2233 3.66018 17.6409 4.39846 16.8756 4.86718C17.618 4.78519 18.3376 4.5742 19 4.28126C18.4975 5.03123 17.8693 5.69917 17.1498 6.23827V6.23827Z"/>
</svg>
